# Hierarchical Translation and Rotation (.htr) file
# Generated by EVaRT
[Header]
FileType htr
DataType HTRS
FileVersion 1
NumSegments 23
NumFrames 4
DataFrameRate 120
EulerRotationOrder ZYX
CalibrationUnits mm
RotationUnits Degrees
GlobalAxisofGravity Y
BoneLengthAxis Y
ScaleFactor 1
[SegmentNames&Hierarchy]
#CHILD            PARENT
DaveRoot          GLOBAL
Spine1            DaveRoot
Spine2            Spine1
Spine3            Spine2
Spine4            Spine3
Neck              Spine4
Head              Neck
LClavicle         Spine4
LUpperArm         LClavicle
LLowerArm         LUpperArm
LHand             LLowerArm
RClavicle         Spine4
RUpperArm         RClavicle
RLowerArm         RUpperArm
RHand             RLowerArm
RUpperLeg         DaveRoot
RLowerLeg         RUpperLeg
RFoot             RLowerLeg
RToes             RFoot
LUpperLeg         DaveRoot
LLowerLeg         LUpperLeg
LFoot             LLowerLeg
LToes             LFoot
[BasePosition]
#SegmentName      Tx   Ty   Tz   Rx   Ry   Rz   BoneLength
DaveRoot          30.502683	1014.050144	-392.030244	16.346492	-1.112010	-1.464339	100.000000
Spine1            0.000000	100.000000	0.000000	-16.708095	0.289044	-0.213389	100.000000
Spine2            0.000000	100.000000	0.000000	4.757952	0.249599	-0.116624	100.000000
Spine3            0.000000	100.000000	0.000000	11.084253	0.260929	-0.088411	100.000000
Spine4            0.000000	100.000000	0.000000	12.228282	1.332274	1.443083	100.000000
Neck              0.000000	100.000000	0.000000	10.147668	18.171820	1.381874	80.000000
Head              0.000000	80.000000	0.000000	-46.518491	-1.401195	-5.185409	200.000000
LClavicle         0.000000	100.000000	0.000000	-3.689620	-1.992124	-101.831237	200.000000
LUpperArm         0.000000	200.000000	0.000000	-0.284445	-3.207106	1.762499	300.000000
LLowerArm         0.000000	300.000000	0.000000	9.834184	2.175812	1.895763	200.000000
LHand             0.000000	200.000000	0.000000	-2.090742	-1.768569	8.793625	120.000000
RClavicle         0.000000	100.000000	0.000000	-0.558465	-3.870894	107.984856	200.000000
RUpperArm         0.000000	200.000000	0.000000	6.860362	-6.098052	-15.811317	300.000000
RLowerArm         0.000000	300.000000	0.000000	5.698581	-3.682026	-7.348670	200.000000
RHand             0.000000	200.000000	0.000000	-4.626921	6.468423	-3.971303	120.000000
RUpperLeg         -115.911102	-10.000000	31.058285	22.974686	25.481186	-170.503396	530.000000
RLowerLeg         0.000000	530.000000	0.000000	-7.725558	0.479387	-2.520024	460.000000
RFoot             0.000000	460.000000	0.000000	81.786251	-5.006629	-0.462861	130.000000
RToes             0.000000	130.000000	0.000000	20.181248	0.005479	-0.002881	100.000000
LUpperLeg         115.911102	-10.000000	31.058285	21.582405	10.065134	-177.228489	530.000000
LLowerLeg         0.000000	530.000000	0.000000	-4.243927	-3.275937	3.046484	460.000000
LFoot             0.000000	460.000000	0.000000	77.706358	-14.203819	16.055021	130.000000
LToes             0.000000	130.000000	0.000000	27.168776	-0.000000	-0.000086	100.000000
#Beginning of Data.
[DaveRoot]
#Fr	Tx	Ty	Tz	Rx	Ry	Rz	SF
309	-699.039691	-30.531840	121.605640	5.200942	-22.781978	2.731466	1.000000	
310	-705.119267	-30.298132	121.837588	6.135550	-21.880103	2.341111	1.000000	
311	-711.457312	-31.074975	121.550180	6.223738	-20.809953	2.106055	1.000000	
312	-717.768445	-31.548956	121.571870	7.034187	-19.787076	1.645942	1.000000	
[Spine1]
#Fr	Tx	Ty	Tz	Rx	Ry	Rz	SF
309	0.000000	0.000000	0.000000	3.128665	1.193338	-3.849756	1.000000	
310	0.000000	0.000000	0.000000	2.664925	1.365882	-3.841982	1.000000	
311	0.000000	0.000000	0.000000	3.359918	1.122650	-3.957335	1.000000	
312	0.000000	0.000000	0.000000	2.787406	1.257373	-3.827790	1.000000	
[Spine2]
#Fr	Tx	Ty	Tz	Rx	Ry	Rz	SF
309	0.000000	0.000000	0.000000	3.128665	1.193338	-3.849756	1.000000	
310	0.000000	0.000000	0.000000	2.664925	1.365882	-3.841982	1.000000	
311	0.000000	0.000000	0.000000	3.359918	1.122650	-3.957335	1.000000	
312	0.000000	0.000000	0.000000	2.787406	1.257373	-3.827790	1.000000	
[Spine3]
#Fr	Tx	Ty	Tz	Rx	Ry	Rz	SF
309	0.000000	0.000000	0.000000	3.128665	1.193338	-3.849756	1.000000	
310	0.000000	0.000000	0.000000	2.664925	1.365882	-3.841982	1.000000	
311	0.000000	0.000000	0.000000	3.359918	1.122650	-3.957335	1.000000	
312	0.000000	0.000000	0.000000	2.787406	1.257373	-3.827790	1.000000	
[Spine4]
#Fr	Tx	Ty	Tz	Rx	Ry	Rz	SF
309	0.000000	0.000000	0.000000	3.128665	1.193338	-3.849756	1.000000	
310	0.000000	0.000000	0.000000	2.664925	1.365882	-3.841982	1.000000	
311	0.000000	0.000000	0.000000	3.359918	1.122650	-3.957335	1.000000	
312	0.000000	0.000000	0.000000	2.787406	1.257373	-3.827790	1.000000	
[Neck]
#Fr	Tx	Ty	Tz	Rx	Ry	Rz	SF
309	0.000000	0.000000	0.000000	3.306840	-5.063681	5.013508	1.000000	
310	0.000000	0.000000	0.000000	4.652518	-5.479613	5.847764	1.000000	
311	0.000000	0.000000	0.000000	2.133293	-5.181391	5.365992	1.000000	
312	0.000000	0.000000	0.000000	4.488164	-5.776916	6.094841	1.000000	
[Head]
#Fr	Tx	Ty	Tz	Rx	Ry	Rz	SF
309	0.000000	0.000000	0.000000	3.306840	-5.063681	5.013508	1.000000	
310	0.000000	0.000000	0.000000	4.652518	-5.479613	5.847764	1.000000	
311	0.000000	0.000000	0.000000	2.133293	-5.181391	5.365992	1.000000	
312	0.000000	0.000000	0.000000	4.488164	-5.776916	6.094841	1.000000	
[LClavicle]
#Fr	Tx	Ty	Tz	Rx	Ry	Rz	SF
309	0.000000	0.000000	0.000000	12.176858	0.228417	-3.687930	1.000000	
310	0.000000	0.000000	0.000000	19.299167	0.933893	-5.294374	1.000000	
311	0.000000	0.000000	0.000000	13.600324	0.540621	-4.862951	1.000000	
312	0.000000	0.000000	0.000000	20.721661	0.395477	-3.674791	1.000000	
[LUpperArm]
#Fr	Tx	Ty	Tz	Rx	Ry	Rz	SF
309	0.000000	0.000000	0.000000	41.225217	29.147413	-21.775567	1.000000	
310	0.000000	0.000000	0.000000	30.906140	29.028095	-21.690077	1.000000	
311	0.000000	0.000000	0.000000	45.194772	30.354408	-14.632746	1.000000	
312	0.000000	0.000000	0.000000	27.691894	26.872943	-23.321564	1.000000	
[LLowerArm]
#Fr	Tx	Ty	Tz	Rx	Ry	Rz	SF
309	0.000000	0.000000	0.000000	-2.028545	0.000000	0.000000	1.000000	
310	0.000000	0.000000	0.000000	0.311478	0.000000	0.000000	1.000000	
311	0.000000	0.000000	0.000000	-9.414593	0.000000	0.000000	1.000000	
312	0.000000	0.000000	0.000000	9.241214	0.000000	0.000000	1.000000	
[LHand]
#Fr	Tx	Ty	Tz	Rx	Ry	Rz	SF
309	0.000000	0.000000	0.000000	10.877225	-0.000000	-0.000000	1.000000	
310	0.000000	0.000000	0.000000	9.718019	-0.000000	-0.000000	1.000000	
311	0.000000	0.000000	0.000000	14.576978	-0.000000	-0.000000	1.000000	
312	0.000000	0.000000	0.000000	2.086526	-0.000000	-0.000000	1.000000	
[RClavicle]
#Fr	Tx	Ty	Tz	Rx	Ry	Rz	SF
309	0.000000	0.000000	0.000000	6.638643	-0.570885	4.706966	1.000000	
310	0.000000	0.000000	0.000000	8.083461	-0.720085	4.870704	1.000000	
311	0.000000	0.000000	0.000000	6.136721	-0.600088	5.377597	1.000000	
312	0.000000	0.000000	0.000000	8.588519	-0.688436	4.362496	1.000000	
[RUpperArm]
#Fr	Tx	Ty	Tz	Rx	Ry	Rz	SF
309	0.000000	0.000000	0.000000	37.291740	-15.591328	38.691944	1.000000	
310	0.000000	0.000000	0.000000	33.312986	-14.778143	40.886820	1.000000	
311	0.000000	0.000000	0.000000	38.592464	-14.985423	37.039678	1.000000	
312	0.000000	0.000000	0.000000	32.740302	-12.706533	42.014049	1.000000	
[RLowerArm]
#Fr	Tx	Ty	Tz	Rx	Ry	Rz	SF
309	0.000000	0.000000	0.000000	20.935376	0.000000	0.000000	1.000000	
310	0.000000	0.000000	0.000000	22.135059	0.000000	0.000000	1.000000	
311	0.000000	0.000000	0.000000	20.082687	0.000000	0.000000	1.000000	
312	0.000000	0.000000	0.000000	23.238797	0.000000	0.000000	1.000000	
[RHand]
#Fr	Tx	Ty	Tz	Rx	Ry	Rz	SF
309	0.000000	0.000000	0.000000	10.780370	-10.575310	-5.176104	1.000000	
310	0.000000	0.000000	0.000000	10.597367	-10.906999	-4.911000	1.000000	
311	0.000000	0.000000	0.000000	11.774171	-9.564545	-5.157010	1.000000	
312	0.000000	0.000000	0.000000	9.842739	-11.109608	-5.084503	1.000000	
[RUpperLeg]
#Fr	Tx	Ty	Tz	Rx	Ry	Rz	SF
309	0.000000	0.000000	0.000000	23.400159	-1.632535	3.073667	1.000000	
310	0.000000	0.000000	0.000000	23.902576	-1.913451	3.242206	1.000000	
311	0.000000	0.000000	0.000000	23.785970	-2.100030	2.832402	1.000000	
312	0.000000	0.000000	0.000000	23.991513	-2.282717	2.876186	1.000000	
[RLowerLeg]
#Fr	Tx	Ty	Tz	Rx	Ry	Rz	SF
309	0.000000	0.000000	0.000000	-38.910615	-0.000000	0.000000	1.000000	
310	0.000000	0.000000	0.000000	-35.873574	-0.000000	0.000000	1.000000	
311	0.000000	0.000000	0.000000	-32.847664	-0.000000	0.000000	1.000000	
312	0.000000	0.000000	0.000000	-29.568595	-0.000000	0.000000	1.000000	
[RFoot]
#Fr	Tx	Ty	Tz	Rx	Ry	Rz	SF
309	0.000000	0.000000	0.000000	-1.993811	2.615695	-19.923935	1.000000	
310	0.000000	0.000000	0.000000	-2.449994	1.866503	-20.815641	1.000000	
311	0.000000	0.000000	0.000000	-2.897423	1.438527	-21.659963	1.000000	
312	0.000000	0.000000	0.000000	-3.480732	1.282635	-22.371581	1.000000	
[RToes]
#Fr	Tx	Ty	Tz	Rx	Ry	Rz	SF
309	0.000000	0.000000	0.000000	0.391942	0.000000	0.000000	1.000000	
310	0.000000	0.000000	0.000000	1.090966	-0.000000	0.000000	1.000000	
311	0.000000	0.000000	0.000000	1.566041	-0.000000	0.000000	1.000000	
312	0.000000	0.000000	0.000000	1.657440	0.000000	0.000000	1.000000	
[LUpperLeg]
#Fr	Tx	Ty	Tz	Rx	Ry	Rz	SF
309	0.000000	0.000000	0.000000	16.500747	0.565862	5.993471	1.000000	
310	0.000000	0.000000	0.000000	17.425148	0.611195	6.491983	1.000000	
311	0.000000	0.000000	0.000000	17.724302	0.867851	6.679307	1.000000	
312	0.000000	0.000000	0.000000	18.691694	1.028874	7.240357	1.000000	
[LLowerLeg]
#Fr	Tx	Ty	Tz	Rx	Ry	Rz	SF
309	0.000000	0.000000	0.000000	-21.959052	-0.000000	-0.000000	1.000000	
310	0.000000	0.000000	0.000000	-22.273202	-0.000000	-0.000000	1.000000	
311	0.000000	0.000000	0.000000	-22.704146	-0.000000	-0.000000	1.000000	
312	0.000000	0.000000	0.000000	-23.304707	-0.000000	-0.000000	1.000000	
[LFoot]
#Fr	Tx	Ty	Tz	Rx	Ry	Rz	SF
309	0.000000	0.000000	0.000000	11.325091	-6.177391	-19.037483	1.000000	
310	0.000000	0.000000	0.000000	11.534661	-5.778483	-19.739758	1.000000	
311	0.000000	0.000000	0.000000	11.762909	-5.357962	-20.395748	1.000000	
312	0.000000	0.000000	0.000000	12.058891	-4.717170	-20.995284	1.000000	
[LToes]
#Fr	Tx	Ty	Tz	Rx	Ry	Rz	SF
309	0.000000	0.000000	0.000000	-5.381028	0.000000	-0.000000	1.000000	
310	0.000000	0.000000	0.000000	-5.253800	0.000000	-0.000000	1.000000	
311	0.000000	0.000000	0.000000	-5.010184	0.000000	-0.000000	1.000000	
312	0.000000	0.000000	0.000000	-4.521447	0.000000	-0.000000	1.000000	
